<?xml version="1.0" encoding="UTF-8"?><svg xmlns="http://www.w3.org/2000/svg" viewBox="0 0 637.51 115.72"><defs><style>.d{fill:#fff;}</style></defs><g id="a"/><g id="b"><g id="c"><g><polygon class="d" points="115.72 115.72 115.72 0 57.86 57.86 0 0 0 115.72 115.72 115.72"/><path class="d" d="M188.31,115.72c31.95,0,57.86-25.9,57.86-57.86S220.26,0,188.31,0s-57.86,25.91-57.86,57.86,25.91,57.86,57.86,57.86"/><path class="d" d="M318.76,0h0C286.8,0,260.9,25.91,260.9,57.86s25.9,57.86,57.86,57.86,57.86-25.9,57.86-57.86h-57.86V0Z"/><path class="d" d="M507.07,57.85V0h-115.72V57.86h0c0,31.96,25.91,57.86,57.86,57.86s57.86-25.9,57.86-57.86h0Z"/><polyline class="d" points="579.65 57.86 521.79 0 521.79 115.72 637.51 115.72"/></g></g></g></svg>