<?xml version="1.0" encoding="UTF-8"?><svg xmlns="http://www.w3.org/2000/svg" viewBox="0 0 637.51 192.36"><defs><style>.d{fill:#fff;}</style></defs><g id="a"/><g id="b"><g id="c"><polygon class="d" points="115.72 115.72 115.72 0 57.86 57.86 0 0 0 115.72 115.72 115.72"/><path class="d" d="M188.31,115.72c31.95,0,57.86-25.9,57.86-57.86S220.26,0,188.31,0s-57.86,25.91-57.86,57.86,25.91,57.86,57.86,57.86"/><path class="d" d="M318.76,0h0C286.8,0,260.9,25.91,260.9,57.86s25.9,57.86,57.86,57.86,57.86-25.9,57.86-57.86h-57.86V0Z"/><path class="d" d="M507.07,57.85V0h-115.72V57.86h0c0,31.96,25.91,57.86,57.86,57.86s57.86-25.9,57.86-57.86h0Z"/><polyline class="d" points="579.65 57.86 521.79 0 521.79 115.72 637.51 115.72"/><path class="d" d="M436.86,192.36c6.68,0,11.39-3.59,11.39-9.47,0-6.42-5.29-8.07-10.27-9.65-4.76-1.44-5.97-2.47-5.97-4.4,0-1.79,1.52-3.14,4.13-3.14,3.18,0,4.89,1.66,6.01,4.04l5.2-3.01c-2.11-4.4-6.06-7.04-11.21-7.04s-10.32,3.41-10.32,9.33,4.67,7.98,9.46,9.38c4.67,1.35,6.77,2.24,6.77,4.58,0,1.75-1.3,3.32-5.03,3.32s-6.1-1.88-7.22-4.8l-5.29,3.09c1.7,4.67,5.92,7.76,12.34,7.76m-36.83-6.55v-7.04h11.89v-5.83h-11.89v-6.69h13.01v-5.92h-19.2v31.4h19.43v-5.92h-13.23Zm-36.07-19.69h6.37c2.33,0,4.26,2.02,4.26,4.62s-1.93,4.67-4.26,4.67h-6.37v-9.29Zm11.04,25.62h6.68l-6.95-11.84c3.59-1.66,6.06-5.2,6.06-9.15,0-5.74-4.67-10.41-10.45-10.41h-12.56v31.4h6.19v-10.9h4.71l6.33,10.9Zm-43.34,.63c6.91,0,12.02-4.13,12.02-10.9v-21.13h-6.19v20.64c0,3.05-1.62,5.34-5.83,5.34s-5.83-2.29-5.83-5.34v-20.64h-6.15v21.13c0,6.77,5.11,10.9,11.98,10.9m-23.69-32.03h-23.11v5.92h8.44v25.48h6.19v-25.48h8.48v-5.92Zm-46.48,32.03c5.79,0,10.86-2.92,13.5-7.4l-5.34-3.09c-1.48,2.74-4.57,4.44-8.16,4.44-6.15,0-10.19-4.26-10.19-10.27s4.04-10.32,10.19-10.32c3.59,0,6.64,1.71,8.16,4.49l5.34-3.09c-2.69-4.49-7.76-7.4-13.5-7.4-9.51,0-16.33,7.13-16.33,16.33s6.82,16.33,16.33,16.33m-35.44-.63h6.19v-31.4h-6.19v31.4Zm-23.28-16.11h-5.52v-9.51h5.52c2.65,0,4.58,2.02,4.58,4.76s-1.93,4.76-4.58,4.76m0-15.3h-11.71v31.4h6.19v-10.32h5.52c6.06,0,10.72-4.67,10.72-10.54s-4.67-10.54-10.72-10.54"/></g></g></svg>